# xmcd
#
# Track frame offsets: 
#        150
#        12845
#        20185
#        63886
#        72250
#        96382
#        100499
#        105944
#        138036
#        153029
#        167475
#        181041
#        190706
#        198044
#
# Disc length: 2693 seconds
#
# Revision: 2
# Processed by: cddbd v1.5.2PL0 Copyright (c) Steve Scherf et al.
# Submitted via: ExactAudioCopy v1.0b3
#
DISCID=a40a830e
DTITLE=Jethro Tull - Aqualung 40th anniversary special edition
DYEAR=2011
DGENRE=Progressive Rock
TTITLE0=Lick your fingers clean
TTITLE1=Just trying to be
TTITLE2=My god [early version] [previously unreleased]
TTITLE3=Wond'ring aloud [13th December 1970] [previously unreleased]
TTITLE4=Wind-up [early version]
TTITLE5=Slipstream [take 2] [previously unreleased]
TTITLE6=Up the 'pool [early version] [previously unreleased]
TTITLE7=Wond'ring aloud, again [previously unreleased]
TTITLE8=Life is a long song
TTITLE9=Up the 'pool
TTITLE10=Dr. Bogenbroom [remastered]
TTITLE11=From later [remastered]
TTITLE12=Nursie [remastered]
TTITLE13=US radio spot
EXTD=YEAR: 2011
EXTT0=
EXTT1=
EXTT2=
EXTT3=
EXTT4=
EXTT5=
EXTT6=
EXTT7=
EXTT8=
EXTT9=
EXTT10=
EXTT11=
EXTT12=
EXTT13=
PLAYORDER=
